<?xml version="1.0" encoding="UTF-8"?><svg id="Livello_1" xmlns="http://www.w3.org/2000/svg" viewBox="0 0 523.85 95.34"><defs><style>.cls-1{fill:#fff;stroke-width:0px;}</style></defs><path class="cls-1" d="M106.51,48.94l-.05-1.42-1.36-.41c-.12-.04-2.26-.68-5.65-1.14,4.19-6.99,2.89-14.86,2.82-15.23l-.25-1.4-1.41-.23c-.46-.07-11.27-1.71-18.7,5.83-1.22,1.24-2.21,2.57-3.01,3.93-3.67-20.9-20.68-33.54-21.49-34.14l-1.15-.84-1.17.81c-.83.57-18.13,12.82-22.28,33.63-.77-1.38-1.73-2.73-2.92-3.99-7.25-7.72-18.1-6.33-18.56-6.26l-1.41.19-.28,1.4c-.07.38-1.56,8.21,2.47,15.3-3.4.39-5.56.98-5.68,1.01l-1.37.38-.09,1.42c-.05.88-1.14,21.73,14.55,34.39,8.73,7.05,18.76,8.64,26.06,8.64,4.78,0,8.38-.68,9.68-.97,1.38.34,5.44,1.2,10.79,1.2,7.19,0,16.69-1.56,25.11-8.04,15.98-12.29,15.37-33.16,15.34-34.04ZM79.61,50.32c.23-3.58,1.31-8.68,5.16-12.59,4.5-4.57,10.84-4.92,13.7-4.81.14,2.77-.09,8.8-4.2,13.33l-.21.25c-.06.07-.12.14-.18.2-4.5,4.57-11.24,4.91-14.32,4.8,0-.35.02-.75.05-1.18h0ZM35.91,46.82c.24-20.54,15.84-34.42,20.29-37.96,4.37,3.64,19.64,17.84,19.4,38.42,0,.85-.05,1.75-.14,2.83-.36,4.51-1.48,9-3.31,13.35h0s0,0,0,0c-.08.2-.17.39-.26.58-4.11,9.37-10.73,16.13-14.62,19.55-.34-6.75-2.5-21.25-14.16-30.66-2.17-1.75-4.59-3.24-7.17-4.46-.02-.58-.03-1.13-.02-1.65ZM55.27,87.75h0s0,.01,0,.01h0s0-.01,0-.01ZM55.27,87.76h0s0,0,0,0h0ZM34,49.75h0s0,0,0,0h0ZM13.39,31.93c2.86-.04,9.19.45,13.59,5.13,2.78,2.96,4.03,6.53,4.55,9.64-4.57-1.49-9.53-2.18-14.82-2.06-3.43-4.51-3.52-10.08-3.32-12.71ZM22.04,79.03c-11.79-9.52-13-24.78-13.08-29.55,1.45-.29,3.88-.69,6.89-.82,4.25-.18,10.61.16,16.88,2.74l.47.2c2.7,1.16,5.18,2.65,7.4,4.44,10.92,8.81,12.53,22.85,12.71,28.56-.03.57-.04,1.08-.05,1.52-4.71.81-19.49,2.37-31.22-7.09ZM88.73,79.81c-10.37,7.98-22.59,7.67-28.82,6.81,3.89-3.4,10.21-9.82,14.65-18.83.08-.15.15-.31.22-.47.14-.3.29-.6.43-.9.06-.12.11-.25.17-.37.15-.34.31-.68.46-1.03,0,0,0,0,0,0h0c.17-.41.33-.83.5-1.24,1.07-2.72,1.88-5.5,2.42-8.29.5.03,1.1.06,1.79.06,4.01,0,10.93-.84,16.01-5.87,2.57.22,4.64.62,5.93.9-.19,4.77-1.75,20-13.76,29.24Z"/><path class="cls-1" d="M145.5,35.83c-.11,1.18-.18,2.33-.22,3.43-.04,1.1-.06,1.96-.06,2.56s.01,1.13.04,1.66.05.97.08,1.34h-.91c-.34-2.05-.82-3.66-1.42-4.83-.61-1.17-1.35-2.01-2.23-2.51-.88-.5-1.93-.75-3.14-.75h-1.3c-.76,0-1.34.07-1.74.2-.39.13-.66.39-.79.79-.13.39-.2,1-.2,1.82v19.81c0,1.03.1,1.79.32,2.29.21.5.62.83,1.22.99.61.16,1.5.25,2.68.28v.87c-.82-.03-1.87-.05-3.16-.08-1.29-.03-2.64-.04-4.06-.04-1.13,0-2.24.01-3.31.04-1.08.03-2.05.05-2.92.08v-.79c.84-.05,1.47-.16,1.89-.32.42-.16.7-.47.85-.95s.22-1.18.22-2.13v-19.57c0-.97-.07-1.69-.22-2.15-.14-.46-.43-.78-.87-.95-.43-.17-1.06-.27-1.87-.3v-.79c1.08.03,2.22.05,3.43.06s2.41.03,3.59.04c1.18.01,2.29.02,3.31.02h2.53c1.21,0,2.58,0,4.12-.02,1.54-.01,2.91-.05,4.12-.1ZM139.62,49.48v.79h-7.18v-.79h7.18ZM140.61,44.27c-.11,1.5-.15,2.64-.14,3.43.01.79.02,1.51.02,2.17s.01,1.38.04,2.17c.03.79.09,1.93.2,3.43h-.91c-.16-.92-.41-1.78-.75-2.56s-.84-1.43-1.5-1.91c-.66-.49-1.51-.73-2.56-.73v-.79c.79,0,1.45-.16,1.99-.49.54-.33.99-.76,1.36-1.3.37-.54.66-1.11.87-1.72.21-.6.37-1.17.47-1.7h.91Z"/><path class="cls-1" d="M155.56,42.93v17.16c0,1.1.19,1.85.57,2.25.38.39,1.03.59,1.95.59v.83c-.47-.03-1.21-.06-2.21-.1s-2.01-.06-3.04-.06-2.07.02-3.12.06c-1.05.04-1.84.07-2.37.1v-.83c.92,0,1.57-.2,1.95-.59.38-.39.57-1.14.57-2.25v-12.43c0-1.18-.18-2.06-.53-2.62-.35-.57-1.02-.85-1.99-.85v-.83c.84.08,1.66.12,2.45.12,1.1,0,2.14-.05,3.1-.14.96-.09,1.85-.23,2.66-.41ZM152.48,33.18c1.11,0,1.98.27,2.62.81s.97,1.28.97,2.23-.32,1.69-.97,2.23c-.64.54-1.52.81-2.62.81s-1.98-.27-2.62-.81c-.64-.54-.97-1.28-.97-2.23s.32-1.69.97-2.23,1.52-.81,2.62-.81Z"/><path class="cls-1" d="M167.6,42.81c1.1,0,2.07.14,2.9.41.83.28,1.43.55,1.79.81.89.61,1.45.21,1.66-1.18h.83c-.05.74-.09,1.64-.12,2.7s-.04,2.48-.04,4.24h-.83c-.13-.97-.38-1.93-.75-2.88-.37-.95-.9-1.72-1.6-2.33-.7-.6-1.6-.91-2.7-.91-.76,0-1.41.22-1.93.65-.53.43-.79,1.06-.79,1.87s.24,1.48.71,2.07,1.08,1.16,1.83,1.7c.75.54,1.53,1.11,2.35,1.72.87.66,1.66,1.31,2.37,1.95.71.65,1.28,1.35,1.7,2.11.42.76.63,1.67.63,2.72,0,1.18-.34,2.22-1.03,3.1-.68.88-1.59,1.56-2.7,2.03-1.12.47-2.36.71-3.73.71-.79,0-1.49-.08-2.11-.24-.62-.16-1.15-.35-1.6-.59-.34-.16-.67-.31-.97-.45-.3-.14-.59-.27-.85-.38-.26-.08-.49.01-.69.28-.2.26-.35.63-.45,1.1h-.83c.05-.84.09-1.87.12-3.08.03-1.21.04-2.81.04-4.81h.83c.16,1.42.45,2.68.87,3.77.42,1.09.99,1.95,1.72,2.56s1.64.93,2.74.93c.45,0,.88-.09,1.3-.28.42-.18.77-.49,1.05-.91.28-.42.41-.96.41-1.62,0-1.16-.38-2.12-1.12-2.88-.75-.76-1.7-1.59-2.86-2.49-.84-.68-1.64-1.36-2.39-2.03-.75-.67-1.36-1.41-1.83-2.21-.47-.8-.71-1.72-.71-2.74,0-1.18.32-2.18.95-3,.63-.81,1.47-1.43,2.51-1.83,1.04-.41,2.15-.61,3.33-.61Z"/><path class="cls-1" d="M186.22,42.93v17.16c0,1.1.19,1.85.57,2.25.38.39,1.03.59,1.95.59v.83c-.47-.03-1.21-.06-2.21-.1s-2.01-.06-3.04-.06-2.07.02-3.12.06c-1.05.04-1.84.07-2.37.1v-.83c.92,0,1.57-.2,1.95-.59.38-.39.57-1.14.57-2.25v-12.43c0-1.18-.18-2.06-.53-2.62-.35-.57-1.02-.85-1.99-.85v-.83c.84.08,1.66.12,2.45.12,1.1,0,2.14-.05,3.1-.14.96-.09,1.85-.23,2.66-.41ZM183.14,33.18c1.11,0,1.98.27,2.62.81s.97,1.28.97,2.23-.32,1.69-.97,2.23c-.64.54-1.52.81-2.62.81s-1.98-.27-2.62-.81c-.64-.54-.97-1.28-.97-2.23s.32-1.69.97-2.23,1.52-.81,2.62-.81Z"/><path class="cls-1" d="M200.62,42.81c1.92,0,3.6.35,5.05,1.07,1.45.71,2.58,1.85,3.39,3.43.82,1.58,1.22,3.67,1.22,6.27s-.41,4.69-1.22,6.25c-.82,1.57-1.95,2.7-3.39,3.41-1.45.71-3.13,1.07-5.05,1.07s-3.53-.35-4.99-1.07c-1.46-.71-2.6-1.85-3.43-3.41-.83-1.56-1.24-3.65-1.24-6.25s.41-4.7,1.24-6.27c.83-1.58,1.97-2.72,3.43-3.43,1.46-.71,3.12-1.07,4.99-1.07ZM200.62,43.6c-1.05,0-1.93.78-2.64,2.35-.71,1.57-1.07,4.11-1.07,7.64s.36,6.06,1.07,7.62c.71,1.55,1.59,2.33,2.64,2.33s1.97-.78,2.66-2.33c.7-1.55,1.04-4.09,1.04-7.62s-.35-6.07-1.04-7.64c-.7-1.56-1.59-2.35-2.66-2.35Z"/><path class="cls-1" d="M220.74,36.89v6.47h4.66v.79h-4.66v15.94c0,.79.14,1.35.43,1.68.29.33.72.49,1.3.49.47,0,.95-.18,1.42-.53.47-.35.89-.97,1.26-1.83l.67.35c-.42,1.18-1.06,2.16-1.91,2.92-.86.76-2.02,1.14-3.49,1.14-.87,0-1.63-.11-2.29-.34-.66-.22-1.21-.56-1.66-1.01-.58-.58-.96-1.3-1.14-2.15-.18-.85-.28-1.97-.28-3.33v-13.34h-3.31v-.79h3.31v-5.21c1.1,0,2.12-.1,3.06-.3s1.81-.52,2.62-.97Z"/><path class="cls-1" d="M236.65,42.81c2.31,0,4.13.68,5.45,2.05,1.32,1.37,1.97,3.6,1.97,6.71h-12.98l-.08-.75h8.09c.03-1.29-.05-2.48-.24-3.57-.18-1.09-.47-1.97-.87-2.62-.39-.66-.92-.99-1.58-.99-.92,0-1.7.58-2.35,1.74-.65,1.16-1.03,3.08-1.16,5.76l.12.24c-.03.32-.05.64-.06.99-.01.34-.02.7-.02,1.07,0,1.81.26,3.29.77,4.42.51,1.13,1.16,1.95,1.95,2.47.79.51,1.59.77,2.41.77.55,0,1.12-.08,1.72-.26.59-.17,1.19-.49,1.8-.95.6-.46,1.17-1.11,1.7-1.95l.71.24c-.32,1-.82,1.97-1.5,2.92-.68.95-1.55,1.72-2.6,2.33-1.05.6-2.31.91-3.79.91-1.79,0-3.37-.38-4.74-1.14-1.37-.76-2.44-1.92-3.22-3.47-.78-1.55-1.16-3.52-1.16-5.92s.41-4.48,1.24-6.12c.83-1.63,1.97-2.85,3.43-3.65,1.46-.8,3.12-1.2,4.99-1.2Z"/><path class="cls-1" d="M259.69,42.81c.84,0,1.53.18,2.05.53.53.35.91.81,1.16,1.36.25.55.38,1.13.38,1.74,0,.97-.28,1.77-.85,2.39-.57.62-1.31.93-2.23.93s-1.64-.23-2.15-.69c-.51-.46-.77-1.07-.77-1.83s.16-1.35.49-1.83c.33-.49.74-.9,1.24-1.24-.37-.1-.74-.09-1.1.04-.5.08-.97.28-1.42.61-.45.33-.83.74-1.14,1.22-.32.49-.57,1.01-.75,1.58-.18.57-.28,1.11-.28,1.64v10.46c0,1.26.31,2.12.93,2.56.62.45,1.54.67,2.78.67v.83c-.61-.03-1.49-.06-2.64-.1-1.16-.04-2.37-.06-3.63-.06-1.05,0-2.12.02-3.2.06-1.08.04-1.89.07-2.45.1v-.83c.92,0,1.57-.2,1.95-.59.38-.39.57-1.14.57-2.25v-12.43c0-1.18-.18-2.06-.53-2.62-.35-.57-1.02-.85-1.99-.85v-.83c.84.08,1.66.12,2.45.12,1.1,0,2.14-.05,3.1-.14.96-.09,1.85-.23,2.66-.41v3.67c.32-.71.74-1.35,1.26-1.93.53-.58,1.13-1.03,1.82-1.36.68-.33,1.45-.49,2.29-.49Z"/><path class="cls-1" d="M269.99,64.04c-1.18,0-2.17-.22-2.96-.67-.79-.45-1.37-1.05-1.74-1.8s-.55-1.57-.55-2.47c0-1.13.26-2.05.77-2.76.51-.71,1.18-1.29,1.99-1.74.82-.45,1.68-.81,2.58-1.1.91-.29,1.78-.57,2.6-.85.83-.28,1.5-.6,2.01-.99s.77-.87.77-1.48v-3.08c0-.68-.11-1.3-.34-1.83-.22-.54-.57-.95-1.03-1.24-.46-.29-1.06-.43-1.79-.43-.53,0-1.05.07-1.58.22-.53.15-.96.39-1.3.73.74.26,1.31.67,1.72,1.2.41.54.61,1.15.61,1.83,0,.89-.31,1.6-.93,2.13-.62.53-1.35.79-2.19.79-.95,0-1.66-.3-2.15-.89-.49-.59-.73-1.31-.73-2.15,0-.76.19-1.39.57-1.89.38-.5.91-.97,1.6-1.42.74-.42,1.62-.75,2.66-.99,1.04-.24,2.16-.35,3.37-.35s2.3.12,3.27.37c.97.25,1.79.7,2.45,1.36.61.61,1,1.35,1.18,2.23.18.88.28,1.99.28,3.33v10.73c0,.66.07,1.11.2,1.36.13.25.36.38.67.38.24,0,.47-.07.69-.2.22-.13.47-.29.73-.47l.39.67c-.55.47-1.19.84-1.91,1.08s-1.53.38-2.43.38c-.97,0-1.75-.14-2.33-.41-.58-.28-.99-.65-1.24-1.12-.25-.47-.38-1.03-.38-1.66-.63,1-1.39,1.78-2.29,2.35-.89.57-1.99.85-3.27.85ZM272.79,61.51c.53,0,1.01-.12,1.44-.38.43-.25.85-.66,1.24-1.24v-8.09c-.24.4-.57.75-.99,1.07-.42.32-.87.64-1.34.97-.47.33-.93.69-1.36,1.09-.43.39-.78.88-1.05,1.46-.26.58-.39,1.28-.39,2.09,0,1.03.22,1.79.67,2.29.45.5,1.04.75,1.78.75Z"/><path class="cls-1" d="M293.03,42.93v24.07c0,1.24.32,2.06.95,2.47.63.41,1.5.61,2.6.61v.83c-.68-.03-1.62-.06-2.82-.1-1.2-.04-2.47-.06-3.81-.06-.97,0-1.93.02-2.86.06-.93.04-1.64.07-2.11.1v-.83c.87,0,1.48-.18,1.83-.55.35-.37.53-1.08.53-2.13v-19.73c0-1.18-.18-2.06-.55-2.62-.37-.57-1.03-.85-1.97-.85v-.83c.84.08,1.66.12,2.45.12,1.08,0,2.1-.05,3.08-.14.97-.09,1.87-.23,2.68-.41ZM299.15,42.81c1.34,0,2.54.36,3.59,1.08,1.05.72,1.89,1.81,2.53,3.27.63,1.46.95,3.28.95,5.47,0,1.92-.22,3.6-.65,5.05-.43,1.45-1.05,2.66-1.85,3.65-.8.99-1.76,1.73-2.88,2.23s-2.37.75-3.77.75c-1.03,0-1.96-.18-2.8-.53-.84-.35-1.49-.86-1.93-1.52l.39-.51c.26.47.64.84,1.12,1.1.49.26,1.04.39,1.68.39,1.18,0,2.12-.4,2.8-1.2.68-.8,1.18-1.93,1.48-3.39.3-1.46.45-3.2.45-5.23,0-2.26-.15-4.04-.43-5.33-.29-1.29-.68-2.21-1.18-2.76-.5-.55-1.1-.83-1.82-.83-.95,0-1.81.37-2.58,1.1-.78.74-1.22,1.79-1.32,3.16l-.2-1.38c.47-1.5,1.28-2.64,2.43-3.41s2.48-1.16,4-1.16Z"/><path class="cls-1" d="M316.86,42.93v17.16c0,1.1.19,1.85.57,2.25.38.39,1.03.59,1.95.59v.83c-.47-.03-1.21-.06-2.21-.1s-2.01-.06-3.04-.06-2.07.02-3.12.06c-1.05.04-1.84.07-2.37.1v-.83c.92,0,1.57-.2,1.95-.59.38-.39.57-1.14.57-2.25v-12.43c0-1.18-.18-2.06-.53-2.62-.35-.57-1.02-.85-1.99-.85v-.83c.84.08,1.66.12,2.45.12,1.1,0,2.14-.05,3.1-.14.96-.09,1.85-.23,2.66-.41ZM313.79,33.18c1.11,0,1.98.27,2.62.81s.97,1.28.97,2.23-.32,1.69-.97,2.23c-.64.54-1.52.81-2.62.81s-1.98-.27-2.62-.81c-.64-.54-.97-1.28-.97-2.23s.32-1.69.97-2.23,1.52-.81,2.62-.81Z"/><path class="cls-1" d="M326.53,64.04c-1.18,0-2.17-.22-2.96-.67-.79-.45-1.37-1.05-1.74-1.8s-.55-1.57-.55-2.47c0-1.13.26-2.05.77-2.76.51-.71,1.18-1.29,1.99-1.74.82-.45,1.68-.81,2.58-1.1.91-.29,1.78-.57,2.6-.85.83-.28,1.5-.6,2.01-.99s.77-.87.77-1.48v-3.08c0-.68-.11-1.3-.34-1.83-.22-.54-.57-.95-1.03-1.24-.46-.29-1.06-.43-1.79-.43-.53,0-1.05.07-1.58.22-.53.15-.96.39-1.3.73.74.26,1.31.67,1.72,1.2.41.54.61,1.15.61,1.83,0,.89-.31,1.6-.93,2.13-.62.53-1.35.79-2.19.79-.95,0-1.66-.3-2.15-.89-.49-.59-.73-1.31-.73-2.15,0-.76.19-1.39.57-1.89.38-.5.91-.97,1.6-1.42.74-.42,1.62-.75,2.66-.99,1.04-.24,2.16-.35,3.37-.35s2.3.12,3.27.37c.97.25,1.79.7,2.45,1.36.61.61,1,1.35,1.18,2.23.18.88.28,1.99.28,3.33v10.73c0,.66.07,1.11.2,1.36.13.25.36.38.67.38.24,0,.47-.07.69-.2.22-.13.47-.29.73-.47l.39.67c-.55.47-1.19.84-1.91,1.08s-1.53.38-2.43.38c-.97,0-1.75-.14-2.33-.41-.58-.28-.99-.65-1.24-1.12-.25-.47-.38-1.03-.38-1.66-.63,1-1.39,1.78-2.29,2.35-.89.57-1.99.85-3.27.85ZM329.33,61.51c.53,0,1.01-.12,1.44-.38.43-.25.85-.66,1.24-1.24v-8.09c-.24.4-.57.75-.99,1.07-.42.32-.87.64-1.34.97-.47.33-.93.69-1.36,1.09-.43.39-.78.88-1.05,1.46-.26.58-.39,1.28-.39,2.09,0,1.03.22,1.79.67,2.29.45.5,1.04.75,1.78.75Z"/><path class="cls-1" d="M384.85,35.83v.79c-.84.03-1.47.12-1.89.3-.42.17-.7.49-.85.95-.14.46-.22,1.18-.22,2.15v19.57c0,.95.07,1.66.22,2.13s.43.79.85.95c.42.16,1.05.26,1.89.32v.79c-.74-.05-1.66-.08-2.78-.1-1.12-.01-2.26-.02-3.41-.02-1.26,0-2.45,0-3.55.02-1.1.01-2,.05-2.68.1v-.79c.89-.05,1.57-.16,2.03-.32.46-.16.77-.47.93-.95s.24-1.18.24-2.13v-21.35h.28l-9.79,25.57h-.63l-10.65-25.41v18.9c0,1.45.08,2.56.24,3.33.16.78.51,1.33,1.05,1.66.54.33,1.39.56,2.54.69v.79c-.5-.05-1.16-.08-1.97-.1-.82-.01-1.58-.02-2.29-.02-.61,0-1.22,0-1.85.02-.63.01-1.16.05-1.58.1v-.79c.84-.13,1.47-.35,1.89-.67.42-.32.7-.83.85-1.56.14-.72.22-1.72.22-2.98v-17.76c0-.97-.07-1.69-.22-2.15-.14-.46-.43-.78-.87-.95-.43-.17-1.06-.27-1.87-.3v-.79c.42.03.95.05,1.58.08.63.03,1.25.04,1.85.04,1.13,0,2.24-.01,3.33-.04,1.09-.03,2.06-.05,2.9-.08l8.29,20.01-.99.91,7.93-20.79h2.8c1.16,0,2.29-.01,3.41-.04,1.12-.03,2.04-.05,2.78-.08Z"/><path class="cls-1" d="M392.31,64.04c-1.18,0-2.17-.22-2.96-.67-.79-.45-1.37-1.05-1.74-1.8s-.55-1.57-.55-2.47c0-1.13.26-2.05.77-2.76.51-.71,1.18-1.29,1.99-1.74.82-.45,1.68-.81,2.58-1.1.91-.29,1.78-.57,2.6-.85.83-.28,1.5-.6,2.01-.99s.77-.87.77-1.48v-3.08c0-.68-.11-1.3-.34-1.83-.22-.54-.57-.95-1.03-1.24-.46-.29-1.06-.43-1.79-.43-.53,0-1.05.07-1.58.22-.53.15-.96.39-1.3.73.74.26,1.31.67,1.72,1.2.41.54.61,1.15.61,1.83,0,.89-.31,1.6-.93,2.13-.62.53-1.35.79-2.19.79-.95,0-1.66-.3-2.15-.89-.49-.59-.73-1.31-.73-2.15,0-.76.19-1.39.57-1.89.38-.5.91-.97,1.6-1.42.74-.42,1.62-.75,2.66-.99,1.04-.24,2.16-.35,3.37-.35s2.3.12,3.27.37c.97.25,1.79.7,2.45,1.36.61.61,1,1.35,1.18,2.23.18.88.28,1.99.28,3.33v10.73c0,.66.07,1.11.2,1.36.13.25.36.38.67.38.24,0,.47-.07.69-.2.22-.13.47-.29.73-.47l.39.67c-.55.47-1.19.84-1.91,1.08s-1.53.38-2.43.38c-.97,0-1.75-.14-2.33-.41-.58-.28-.99-.65-1.24-1.12-.25-.47-.38-1.03-.38-1.66-.63,1-1.39,1.78-2.29,2.35-.89.57-1.99.85-3.27.85ZM395.11,61.51c.53,0,1.01-.12,1.44-.38.43-.25.85-.66,1.24-1.24v-8.09c-.24.4-.57.75-.99,1.07-.42.32-.87.64-1.34.97-.47.33-.93.69-1.36,1.09-.43.39-.78.88-1.05,1.46-.26.58-.39,1.28-.39,2.09,0,1.03.22,1.79.67,2.29.45.5,1.04.75,1.78.75Z"/><path class="cls-1" d="M414.95,71.18c-1.63,0-3.08-.14-4.36-.41-1.28-.28-2.28-.7-3-1.26-.72-.57-1.08-1.26-1.08-2.07s.37-1.55,1.1-2.19,1.83-1.15,3.28-1.52l.35.63c-.5.39-.86.82-1.08,1.28-.22.46-.33.94-.33,1.44,0,1.1.51,1.95,1.52,2.54s2.39.89,4.12.89c1.18,0,2.24-.16,3.18-.47.93-.32,1.67-.79,2.21-1.42.54-.63.81-1.41.81-2.33,0-.79-.29-1.45-.87-1.99-.58-.54-1.74-.81-3.47-.81h-2.45c-1.08,0-2.02-.12-2.82-.35-.8-.24-1.43-.61-1.88-1.12-.45-.51-.67-1.16-.67-1.95,0-1.1.43-2.08,1.3-2.92.87-.84,2.16-1.63,3.87-2.37l.4.32c-.5.32-.97.65-1.4,1.01-.43.36-.65.81-.65,1.36,0,.84.53,1.26,1.58,1.26h4.3c1.45,0,2.74.17,3.89.51,1.14.34,2.05.9,2.72,1.68.67.78,1.01,1.78,1.01,3.02s-.41,2.49-1.24,3.59c-.83,1.1-2.1,1.99-3.81,2.66-1.71.67-3.88,1.01-6.51,1.01ZM415.35,55.36c-1.5,0-2.84-.22-4.02-.67s-2.12-1.13-2.8-2.05-1.03-2.1-1.03-3.55.34-2.64,1.03-3.57c.68-.93,1.62-1.62,2.8-2.05s2.53-.65,4.02-.65,2.84.22,4.03.65,2.12,1.12,2.8,2.05c.68.93,1.03,2.12,1.03,3.57s-.34,2.63-1.03,3.55c-.68.92-1.62,1.6-2.8,2.05s-2.53.67-4.03.67ZM415.35,54.65c.71,0,1.26-.4,1.66-1.2.39-.8.59-2.26.59-4.36s-.2-3.56-.59-4.36c-.39-.8-.95-1.2-1.66-1.2s-1.23.4-1.64,1.2c-.41.8-.61,2.26-.61,4.36s.2,3.56.61,4.36c.41.8.95,1.2,1.64,1.2ZM421.5,46.2l-.79-.28c.4-1.03,1.03-1.88,1.91-2.56.88-.68,1.83-1.03,2.86-1.03.84,0,1.48.23,1.91.69.43.46.65,1.06.65,1.8,0,.79-.21,1.38-.63,1.76-.42.38-.89.57-1.42.57-.45,0-.86-.16-1.24-.47-.38-.32-.6-.8-.65-1.44s.17-1.48.67-2.51l.28.24c-1,.37-1.75.8-2.25,1.28-.5.49-.93,1.14-1.3,1.95Z"/><path class="cls-1" d="M443.8,42.81c1.11,0,2.01.14,2.7.41.7.28,1.24.65,1.64,1.12.42.5.73,1.14.93,1.93.2.79.3,1.85.3,3.2v10.61c0,1.1.19,1.85.57,2.25.38.39,1.03.59,1.95.59v.83c-.5-.03-1.25-.06-2.25-.1s-1.99-.06-2.96-.06-1.98.02-2.94.06c-.96.04-1.69.07-2.19.1v-.83c.79,0,1.34-.2,1.66-.59.32-.39.47-1.14.47-2.25v-12.27c0-.66-.07-1.23-.2-1.72-.13-.49-.37-.87-.71-1.14s-.86-.41-1.54-.41-1.36.2-1.95.59c-.59.39-1.07.94-1.42,1.64-.35.7-.53,1.48-.53,2.35v10.97c0,1.1.16,1.85.49,2.25s.87.59,1.64.59v.83c-.47-.03-1.16-.06-2.07-.1-.91-.04-1.85-.06-2.82-.06s-2.03.02-3.08.06c-1.05.04-1.84.07-2.37.1v-.83c.92,0,1.57-.2,1.95-.59.38-.39.57-1.14.57-2.25v-12.43c0-1.18-.18-2.06-.53-2.62-.35-.57-1.02-.85-1.99-.85v-.83c.84.08,1.66.12,2.45.12,1.1,0,2.14-.05,3.1-.14.96-.09,1.85-.23,2.66-.41v3.55c.66-1.34,1.55-2.29,2.68-2.84,1.13-.55,2.39-.83,3.79-.83Z"/><path class="cls-1" d="M463.53,42.81c1.92,0,3.6.35,5.05,1.07,1.45.71,2.58,1.85,3.39,3.43.82,1.58,1.22,3.67,1.22,6.27s-.41,4.69-1.22,6.25c-.82,1.57-1.95,2.7-3.39,3.41-1.45.71-3.13,1.07-5.05,1.07s-3.53-.35-4.99-1.07c-1.46-.71-2.6-1.85-3.43-3.41-.83-1.56-1.24-3.65-1.24-6.25s.41-4.7,1.24-6.27c.83-1.58,1.97-2.72,3.43-3.43,1.46-.71,3.12-1.07,4.99-1.07ZM463.53,43.6c-1.05,0-1.93.78-2.64,2.35-.71,1.57-1.07,4.11-1.07,7.64s.36,6.06,1.07,7.62c.71,1.55,1.59,2.33,2.64,2.33s1.97-.78,2.66-2.33c.7-1.55,1.04-4.09,1.04-7.62s-.35-6.07-1.04-7.64c-.7-1.56-1.59-2.35-2.66-2.35Z"/><path class="cls-1" d="M483.29,32.87v27.23c0,1.1.19,1.85.57,2.25.38.39,1.03.59,1.95.59v.83c-.5-.03-1.25-.06-2.25-.1s-2.01-.06-3.04-.06-2.06.02-3.1.06-1.82.07-2.35.1v-.83c.92,0,1.57-.2,1.95-.59.38-.39.57-1.14.57-2.25v-22.49c0-1.18-.18-2.06-.53-2.62-.36-.57-1.02-.85-1.99-.85v-.83c.84.08,1.66.12,2.45.12,1.08,0,2.1-.05,3.08-.14.97-.09,1.87-.23,2.68-.41Z"/><path class="cls-1" d="M495.72,42.93v17.16c0,1.1.19,1.85.57,2.25.38.39,1.03.59,1.95.59v.83c-.47-.03-1.21-.06-2.21-.1s-2.01-.06-3.04-.06-2.07.02-3.12.06c-1.05.04-1.84.07-2.37.1v-.83c.92,0,1.57-.2,1.95-.59.38-.39.57-1.14.57-2.25v-12.43c0-1.18-.18-2.06-.53-2.62-.35-.57-1.02-.85-1.99-.85v-.83c.84.08,1.66.12,2.45.12,1.1,0,2.14-.05,3.1-.14.96-.09,1.85-.23,2.66-.41ZM492.65,33.18c1.11,0,1.98.27,2.62.81s.97,1.28.97,2.23-.32,1.69-.97,2.23c-.64.54-1.52.81-2.62.81s-1.98-.27-2.62-.81c-.64-.54-.97-1.28-.97-2.23s.32-1.69.97-2.23,1.52-.81,2.62-.81Z"/><path class="cls-1" d="M505.39,64.04c-1.18,0-2.17-.22-2.96-.67-.79-.45-1.37-1.05-1.74-1.8s-.55-1.57-.55-2.47c0-1.13.26-2.05.77-2.76.51-.71,1.18-1.29,1.99-1.74.82-.45,1.68-.81,2.58-1.1.91-.29,1.78-.57,2.6-.85.83-.28,1.5-.6,2.01-.99s.77-.87.77-1.48v-3.08c0-.68-.11-1.3-.34-1.83-.22-.54-.57-.95-1.03-1.24-.46-.29-1.06-.43-1.79-.43-.53,0-1.05.07-1.58.22-.53.15-.96.39-1.3.73.74.26,1.31.67,1.72,1.2.41.54.61,1.15.61,1.83,0,.89-.31,1.6-.93,2.13-.62.53-1.35.79-2.19.79-.95,0-1.66-.3-2.15-.89-.49-.59-.73-1.31-.73-2.15,0-.76.19-1.39.57-1.89.38-.5.91-.97,1.6-1.42.74-.42,1.62-.75,2.66-.99,1.04-.24,2.16-.35,3.37-.35s2.3.12,3.27.37c.97.25,1.79.7,2.45,1.36.61.61,1,1.35,1.18,2.23.18.88.28,1.99.28,3.33v10.73c0,.66.07,1.11.2,1.36.13.25.36.38.67.38.24,0,.47-.07.69-.2.22-.13.47-.29.73-.47l.39.67c-.55.47-1.19.84-1.91,1.08s-1.53.38-2.43.38c-.97,0-1.75-.14-2.33-.41-.58-.28-.99-.65-1.24-1.12-.25-.47-.38-1.03-.38-1.66-.63,1-1.39,1.78-2.29,2.35-.89.57-1.99.85-3.27.85ZM508.19,61.51c.53,0,1.01-.12,1.44-.38.43-.25.85-.66,1.24-1.24v-8.09c-.24.4-.57.75-.99,1.07-.42.32-.87.64-1.34.97-.47.33-.93.69-1.36,1.09-.43.39-.78.88-1.05,1.46-.26.58-.39,1.28-.39,2.09,0,1.03.22,1.79.67,2.29.45.5,1.04.75,1.78.75Z"/></svg>