<svg width="30" height="30" viewBox="0 0 141 120" fill="none" xmlns="http://www.w3.org/2000/svg">
<path d="M100.892 63.9373C100.783 65.3999 100.783 66.8684 100.892 68.331C100.892 68.331 116.036 70.6141 125.464 61.03C125.694 60.8001 125.882 60.5619 126.096 60.3238C134.76 50.7725 132.403 37.3614 132.403 37.3614C132.403 37.3614 118.286 35.0865 108.85 44.6706C102.731 50.9039 101.204 59.018 100.892 63.9373Z" stroke="white" stroke-width="4.1" stroke-miterlimit="10"/>
<path d="M14.9717 59.0344C6.53738 49.2861 9.22289 35.9406 9.22289 35.9406C9.22289 35.9406 23.3978 33.9943 32.6041 43.7919C38.5911 50.1648 39.9133 58.3035 40.1186 63.231" stroke="white" stroke-width="4.1" stroke-miterlimit="10"/>
<path d="M95.8654 83.4421C87.1273 104.179 69.8809 116.12 69.8809 116.12" stroke="white" stroke-width="4.1" stroke-miterlimit="10"/>
<path d="M126.096 60.3566C130.208 60.5935 134.284 61.2568 138.259 62.3358C138.259 62.3358 139.343 90.9156 118.031 107.316C96.9824 123.503 70.464 116.284 69.8809 116.128" stroke="white" stroke-width="4.1" stroke-miterlimit="10"/>
<path d="M95.8655 83.4421C98.5024 77.2679 100.13 70.7101 100.686 64.0194L100.892 63.9373" stroke="white" stroke-width="4.1" stroke-miterlimit="10"/>
<path d="M40.3157 63.3214C44.2391 65.0031 47.9141 67.2136 51.2384 69.8914C67.2283 82.7934 69.6674 102.955 69.9384 111.776C69.7906 114.42 69.8727 116.046 69.8727 116.12" stroke="white" stroke-width="4.1" stroke-miterlimit="10"/>
<path d="M40.3156 63.3213C40.2335 61.9745 40.1842 60.6112 40.2007 59.2151C40.5949 24.2213 71.1867 3 71.1867 3C71.1867 3 101.286 24.9194 100.883 59.9296C100.883 61.3257 100.785 62.689 100.678 64.0358C100.12 70.7173 98.4949 77.2663 95.8655 83.4339" stroke="white" stroke-width="4.1" stroke-miterlimit="10"/>
<path d="M95.8656 83.4421C87.1849 103.974 70.267 115.874 69.8975 116.128" stroke="white" stroke-width="4.1" stroke-miterlimit="10"/>
<path d="M14.9717 59.0344C23.55 58.5661 32.1258 59.9991 40.0857 63.231" stroke="white" stroke-width="4.1" stroke-miterlimit="10"/>
<path d="M40.3156 63.3213L40.1021 63.231" stroke="white" stroke-width="4.1" stroke-miterlimit="10"/>
<path d="M14.9717 59.0344C10.856 59.1726 6.76592 59.7396 2.76783 60.7262C2.76783 60.7262 1.01855 89.2813 21.9442 106.166C42.6645 122.887 69.3307 116.268 69.8563 116.128" stroke="white" stroke-width="4.1" stroke-miterlimit="10"/>
</svg>
