<?xml version="1.0" encoding="UTF-8"?><svg id="Livello_1" xmlns="http://www.w3.org/2000/svg" viewBox="0 0 111.46 95.34"><defs><style>.cls-1{fill:#fff;stroke-width:0px;}</style></defs><path class="cls-1" d="M106.51,48.94l-.05-1.42-1.36-.41c-.12-.04-2.26-.68-5.65-1.14,4.19-6.99,2.89-14.86,2.82-15.23l-.25-1.4-1.41-.23c-.45-.07-11.27-1.71-18.7,5.83-1.22,1.24-2.21,2.57-3.01,3.93-3.67-20.9-20.68-33.55-21.49-34.14l-1.15-.84-1.17.81c-.83.57-18.13,12.82-22.28,33.63-.77-1.38-1.73-2.73-2.92-3.99-7.25-7.72-18.1-6.33-18.56-6.26l-1.41.19-.28,1.4c-.07.38-1.56,8.21,2.47,15.3-3.4.39-5.56.98-5.68,1.01l-1.37.38-.09,1.42c-.05.88-1.14,21.73,14.55,34.39,8.73,7.04,18.77,8.64,26.07,8.64,4.78,0,8.37-.68,9.67-.97,1.38.34,5.44,1.2,10.8,1.2,7.18,0,16.68-1.56,25.11-8.04,15.97-12.29,15.37-33.16,15.34-34.04ZM84.77,37.73c4.5-4.57,10.84-4.92,13.7-4.81.14,2.77-.09,8.8-4.2,13.33l-.21.25c-.06.07-.12.14-.18.2-4.5,4.57-11.23,4.91-14.32,4.8,0-.35.02-.75.05-1.18.23-3.58,1.31-8.68,5.16-12.59ZM55.29,87.75h0s0,0,0,0h0s0,0,0,0ZM55.28,87.76h0s0,0,0,0h0ZM35.91,46.82c.24-20.53,15.84-34.42,20.29-37.96,4.37,3.65,19.64,17.89,19.4,38.42,0,.85-.05,1.75-.14,2.83-.36,4.51-1.48,9-3.31,13.35h0c-4.09,9.67-10.91,16.64-14.87,20.13-.34-6.75-2.5-21.25-14.16-30.66-2.17-1.76-4.59-3.24-7.17-4.46-.02-.58-.03-1.13-.02-1.65ZM34,49.75h0s0,0,0,0h0ZM13.39,31.93c2.87-.04,9.19.45,13.59,5.13,2.78,2.96,4.03,6.53,4.55,9.64-4.57-1.49-9.53-2.18-14.82-2.06-3.43-4.51-3.52-10.08-3.32-12.71ZM22.04,79.03c-11.79-9.52-13-24.78-13.08-29.55,1.45-.29,3.88-.69,6.89-.82,4.25-.18,10.61.16,16.89,2.75l.46.2c2.69,1.16,5.18,2.65,7.4,4.44,10.92,8.81,12.53,22.85,12.71,28.56-.03.57-.04,1.08-.05,1.52-4.71.81-19.5,2.37-31.22-7.09ZM88.73,79.81c-10.22,7.87-22.52,7.6-28.79,6.78,3.89-3.41,10.19-9.82,14.62-18.81.08-.15.15-.31.22-.47.14-.3.29-.6.43-.9.06-.12.11-.25.17-.37.15-.34.31-.68.46-1.03,0,0,0,0,0,0h0c.17-.41.33-.83.5-1.24,1.07-2.72,1.88-5.5,2.42-8.3.5.03,1.1.06,1.79.06,4.01,0,10.93-.84,16.01-5.87,2.57.22,4.65.62,5.93.91-.18,4.77-1.72,19.97-13.77,29.24Z"/></svg>